{"asset":{"version":"2.0","generator":"THREE.GLTFExporter"},"scenes":[{"name":"AuxScene","nodes":[0]}],"scene":0,"nodes":[{"mesh":0}],"bufferViews":[{"buffer":0,"byteOffset":0,"byteLength":3612,"target":34962,"byteStride":12},{"buffer":0,"byteOffset":3612,"byteLength":3612,"target":34962,"byteStride":12},{"buffer":0,"byteOffset":7224,"byteLength":2408,"target":34962,"byteStride":8},{"buffer":0,"byteOffset":9632,"byteLength":3612,"target":34962,"byteStride":12},{"buffer":0,"byteOffset":13244,"byteLength":792,"target":34963}],"buffers":[{"byteLength":14036,"uri":"data:application/octet-stream;base64,"}],"accessors":[{"bufferView":0,"componentType":5126,"count":301,"max":[0.5625,1.1876044273376465,0.0626000165939331],"min":[-0.5625,-0.00009572784620104358,-0.9999001026153564],"type":"VEC3"},{"bufferView":1,"componentType":5126,"count":301,"max":[1,1,0.9043555855751038],"min":[-1,-1,-0.9044312834739685],"type":"VEC3"},{"bufferView":2,"componentType":5126,"count":301,"max":[0.375,0.0625],"min":[0.25,0],"type":"VEC2"},{"bufferView":3,"componentType":5126,"count":301,"max":[1,1,1],"min":[1,1,1],"type":"VEC3"},{"bufferView":4,"componentType":5123,"count":396,"max":[300],"min":[0],"type":"SCALAR"}],"materials":[{"pbrMetallicRoughness":{"metallicFactor":0.5,"roughnessFactor":0.5,"baseColorTexture":{"index":0}},"alphaMode":"MASK","alphaCutoff":0.01}],"textures":[{"sampler":0,"source":0}],"samplers":[{"magFilter":9728,"minFilter":9728,"wrapS":33071,"wrapT":33071}],"images":[{"mimeType":"image/png","uri":"data:image/png;base64,"}],"meshes":[{"primitives":[{"mode":4,"attributes":{"POSITION":0,"NORMAL":1,"TEXCOORD_0":2,"COLOR_0":3},"indices":4,"material":0}]}]}