{"asset":{"version":"2.0","generator":"THREE.GLTFExporter"},"scenes":[{"name":"AuxScene","nodes":[0]}],"scene":0,"nodes":[{"mesh":0}],"bufferViews":[{"buffer":0,"byteOffset":0,"byteLength":1320,"target":34962,"byteStride":12},{"buffer":0,"byteOffset":1320,"byteLength":1320,"target":34962,"byteStride":12},{"buffer":0,"byteOffset":2640,"byteLength":880,"target":34962,"byteStride":8},{"buffer":0,"byteOffset":3520,"byteLength":1320,"target":34962,"byteStride":12},{"buffer":0,"byteOffset":4840,"byteLength":348,"target":34963}],"buffers":[{"byteLength":5188,"uri":"data:application/octet-stream;base64,"}],"accessors":[{"bufferView":0,"componentType":5126,"count":110,"max":[2,2.375,5.551115123125783e-17],"min":[-1,0.75,-0.5],"type":"VEC3"},{"bufferView":1,"componentType":5126,"count":110,"max":[1,1,1],"min":[-1,-1,-1],"type":"VEC3"},{"bufferView":2,"componentType":5126,"count":110,"max":[0.125,0.125],"min":[0,0],"type":"VEC2"},{"bufferView":3,"componentType":5126,"count":110,"max":[1,1,1],"min":[1,1,1],"type":"VEC3"},{"bufferView":4,"componentType":5123,"count":174,"max":[109],"min":[0],"type":"SCALAR"}],"materials":[{"pbrMetallicRoughness":{"metallicFactor":0.5,"roughnessFactor":0.5,"baseColorTexture":{"index":0}},"alphaMode":"MASK","alphaCutoff":0.01}],"textures":[{"sampler":0,"source":0}],"samplers":[{"magFilter":9728,"minFilter":9728,"wrapS":33071,"wrapT":33071}],"images":[{"mimeType":"image/png","uri":"data:image/png;base64,"}],"meshes":[{"primitives":[{"mode":4,"attributes":{"POSITION":0,"NORMAL":1,"TEXCOORD_0":2,"COLOR_0":3},"indices":4,"material":0}]}]}