{"asset":{"version":"2.0","generator":"THREE.GLTFExporter"},"scenes":[{"name":"AuxScene","nodes":[0]}],"scene":0,"nodes":[{"mesh":0}],"bufferViews":[{"buffer":0,"byteOffset":0,"byteLength":3120,"target":34962,"byteStride":12},{"buffer":0,"byteOffset":3120,"byteLength":3120,"target":34962,"byteStride":12},{"buffer":0,"byteOffset":6240,"byteLength":2080,"target":34962,"byteStride":8},{"buffer":0,"byteOffset":8320,"byteLength":3120,"target":34962,"byteStride":12},{"buffer":0,"byteOffset":11440,"byteLength":672,"target":34963}],"buffers":[{"byteLength":12112,"uri":"data:application/octet-stream;base64,"}],"accessors":[{"bufferView":0,"componentType":5126,"count":260,"max":[2.5,0.25018590688705444,1.375],"min":[-2.5,-0.3125,-0.9998499751091003],"type":"VEC3"},{"bufferView":1,"componentType":5126,"count":260,"max":[1,0.9701535701751709,0.9701424837112427],"min":[-1,-0.9991316199302673,-0.9486833810806274],"type":"VEC3"},{"bufferView":2,"componentType":5126,"count":260,"max":[0.0625,0.0625],"min":[0,0],"type":"VEC2"},{"bufferView":3,"componentType":5126,"count":260,"max":[1,1,1],"min":[1,1,1],"type":"VEC3"},{"bufferView":4,"componentType":5123,"count":336,"max":[259],"min":[0],"type":"SCALAR"}],"materials":[{"pbrMetallicRoughness":{"metallicFactor":0.5,"roughnessFactor":0.5,"baseColorTexture":{"index":0}},"alphaMode":"MASK","alphaCutoff":0.01}],"textures":[{"sampler":0,"source":0}],"samplers":[{"magFilter":9728,"minFilter":9728,"wrapS":33071,"wrapT":33071}],"images":[{"mimeType":"image/png","uri":"data:image/png;base64,"}],"meshes":[{"primitives":[{"mode":4,"attributes":{"POSITION":0,"NORMAL":1,"TEXCOORD_0":2,"COLOR_0":3},"indices":4,"material":0}]}]}